<?xml version="1.0" standalone="no"?><!DOCTYPE svg PUBLIC "-//W3C//DTD SVG 20010904//EN"
    "http://www.w3.org/TR/2001/REC-SVG-20010904/DTD/svg10.dtd">
<svg version="1.0" xmlns="http://www.w3.org/2000/svg" width="84.000000pt" height="84.000000pt"
    viewBox="0 0 84.000000 84.000000" preserveAspectRatio="xMidYMid meet">
  <metadata>
    Created by potrace 1.14, written by Peter Selinger 2001-2017
  </metadata>
  <g transform="translate(0.000000,84.000000) scale(0.100000,-0.100000)" fill="#000000"
      stroke="none">
    <path d="M335 757 c-97 -33 -179 -98 -219 -175 -21 -41 -21 -42 17 -42 40 0
72 -21 131 -87 42 -46 128 -113 147 -113 11 0 39 78 39 112 0 17 -5 47 -11 68
-14 47 6 92 51 110 67 28 138 -44 110 -110 -7 -17 -21 -35 -31 -41 -25 -13
-78 -92 -85 -126 -3 -15 1 -43 9 -61 18 -43 11 -77 -21 -102 -38 -31 -78 -25
-136 18 -64 48 -123 72 -181 72 -50 0 -53 -4 -29 -40 36 -53 92 -103 149 -133
54 -29 68 -32 150 -32 78 0 97 4 147 28 70 34 138 100 167 161 26 57 26 66 1
66 -34 0 -70 44 -70 85 0 41 36 85 70 85 26 0 25 19 -1 75 -50 106 -170 184
-293 191 -43 2 -87 -1 -111 -9z" />
    <path d="M710 450 c-23 -23 -24 -33 -9 -61 28 -54 108 -34 109 27 0 48 -64 70
-100 34z" />
  </g>
</svg>
